<?xml version="1.0" encoding="UTF-8" standalone="no"?>
<!DOCTYPE svg PUBLIC "-//W3C//DTD SVG 1.1//EN"
 "http://www.w3.org/Graphics/SVG/1.1/DTD/svg11.dtd">
<!-- Generated by graphviz version 2.47.0 (20210316.0004)
 -->
<!-- Title: dependencies Pages: 1 -->
<svg width="1545pt" height="211pt"
 viewBox="0.00 0.00 1545.00 211.00" xmlns="http://www.w3.org/2000/svg" xmlns:xlink="http://www.w3.org/1999/xlink">
<g id="graph0" class="graph" transform="scale(1 1) rotate(0) translate(4 207)">
<title>dependencies</title>
<polygon fill="white" stroke="transparent" points="-4,4 -4,-207 1541,-207 1541,4 -4,4"/>
<text text-anchor="start" x="747.51" y="-42.4" font-family="Times-12" font-weight="bold" font-size="14.00">Legend</text>
<polygon fill="#ffffb3" stroke="transparent" points="534.5,-10 534.5,-30 554.5,-30 554.5,-10 534.5,-10"/>
<text text-anchor="start" x="558.13" y="-15.4" font-family="Times-12" font-size="14.00"> &#160;Declarations</text>
<polygon fill="#8dd3c7" stroke="transparent" points="647.5,-10 647.5,-30 667.5,-30 667.5,-10 647.5,-10"/>
<text text-anchor="start" x="671.23" y="-15.4" font-family="Times-12" font-size="14.00"> &#160;Module</text>
<polygon fill="#80b1d3" stroke="transparent" points="733.5,-10 733.5,-30 753.5,-30 753.5,-10 733.5,-10"/>
<text text-anchor="start" x="757.28" y="-15.4" font-family="Times-12" font-size="14.00"> &#160;Bootstrap</text>
<polygon fill="#fdb462" stroke="transparent" points="830.5,-10 830.5,-30 850.5,-30 850.5,-10 830.5,-10"/>
<text text-anchor="start" x="854.17" y="-15.4" font-family="Times-12" font-size="14.00"> &#160;Providers</text>
<polygon fill="#fb8072" stroke="transparent" points="926.5,-10 926.5,-30 946.5,-30 946.5,-10 926.5,-10"/>
<text text-anchor="start" x="950.23" y="-15.4" font-family="Times-12" font-size="14.00"> &#160;Exports</text>
<g id="clust1" class="cluster">
<title>cluster_AppModule</title>
<polygon fill="none" stroke="black" stroke-dasharray="1,5" points="8,-70 8,-195 1529,-195 1529,-70 8,-70"/>
</g>
<g id="clust3" class="cluster">
<title>cluster_AppModule_imports</title>
<polygon fill="none" stroke="black" points="16,-78 16,-130 1521,-130 1521,-78 16,-78"/>
</g>
<!-- AddressesModule -->
<g id="node1" class="node">
<title>AddressesModule</title>
<polygon fill="#8dd3c7" stroke="black" points="1512.58,-122 1509.58,-126 1488.58,-126 1485.58,-122 1395.42,-122 1395.42,-86 1512.58,-86 1512.58,-122"/>
<text text-anchor="middle" x="1454" y="-99.8" font-family="Times,serif" font-size="14.00">AddressesModule</text>
</g>
<!-- AppModule -->
<g id="node13" class="node">
<title>AppModule</title>
<polygon fill="#8dd3c7" stroke="black" points="835.66,-187 832.66,-191 811.66,-191 808.66,-187 752.34,-187 752.34,-151 835.66,-151 835.66,-187"/>
<text text-anchor="middle" x="794" y="-164.8" font-family="Times,serif" font-size="14.00">AppModule</text>
</g>
<!-- AddressesModule&#45;&gt;AppModule -->
<g id="edge1" class="edge">
<title>AddressesModule&#45;&gt;AppModule</title>
<path fill="none" stroke="black" d="M1454,-122.09C1454,-145.13 1454,-182 1454,-182 1454,-182 845.79,-182 845.79,-182"/>
<polygon fill="black" stroke="black" points="845.79,-178.5 835.79,-182 845.79,-185.5 845.79,-178.5"/>
</g>
<!-- AuthModule -->
<g id="node2" class="node">
<title>AuthModule</title>
<polygon fill="#8dd3c7" stroke="black" points="1377.55,-122 1374.55,-126 1353.55,-126 1350.55,-122 1290.45,-122 1290.45,-86 1377.55,-86 1377.55,-122"/>
<text text-anchor="middle" x="1334" y="-99.8" font-family="Times,serif" font-size="14.00">AuthModule</text>
</g>
<!-- AuthModule&#45;&gt;AppModule -->
<g id="edge2" class="edge">
<title>AuthModule&#45;&gt;AppModule</title>
<path fill="none" stroke="black" d="M1334,-122.28C1334,-143.32 1334,-175 1334,-175 1334,-175 845.92,-175 845.92,-175"/>
<polygon fill="black" stroke="black" points="845.92,-171.5 835.92,-175 845.92,-178.5 845.92,-171.5"/>
</g>
<!-- CartModule -->
<g id="node3" class="node">
<title>CartModule</title>
<polygon fill="#8dd3c7" stroke="black" points="1271.65,-122 1268.65,-126 1247.65,-126 1244.65,-122 1188.35,-122 1188.35,-86 1271.65,-86 1271.65,-122"/>
<text text-anchor="middle" x="1230" y="-99.8" font-family="Times,serif" font-size="14.00">CartModule</text>
</g>
<!-- CartModule&#45;&gt;AppModule -->
<g id="edge3" class="edge">
<title>CartModule&#45;&gt;AppModule</title>
<path fill="none" stroke="black" d="M1230,-122.11C1230,-141.34 1230,-169 1230,-169 1230,-169 845.81,-169 845.81,-169"/>
<polygon fill="black" stroke="black" points="845.81,-165.5 835.81,-169 845.81,-172.5 845.81,-165.5"/>
</g>
<!-- CustomersModule -->
<g id="node4" class="node">
<title>CustomersModule</title>
<polygon fill="#8dd3c7" stroke="black" points="1169.93,-122 1166.93,-126 1145.93,-126 1142.93,-122 1050.07,-122 1050.07,-86 1169.93,-86 1169.93,-122"/>
<text text-anchor="middle" x="1110" y="-99.8" font-family="Times,serif" font-size="14.00">CustomersModule</text>
</g>
<!-- CustomersModule&#45;&gt;AppModule -->
<g id="edge4" class="edge">
<title>CustomersModule&#45;&gt;AppModule</title>
<path fill="none" stroke="black" d="M1110,-122.02C1110,-139.37 1110,-163 1110,-163 1110,-163 845.96,-163 845.96,-163"/>
<polygon fill="black" stroke="black" points="845.96,-159.5 835.96,-163 845.96,-166.5 845.96,-159.5"/>
</g>
<!-- OrdersModule -->
<g id="node5" class="node">
<title>OrdersModule</title>
<polygon fill="#8dd3c7" stroke="black" points="1031.64,-122 1028.64,-126 1007.64,-126 1004.64,-122 934.36,-122 934.36,-86 1031.64,-86 1031.64,-122"/>
<text text-anchor="middle" x="983" y="-99.8" font-family="Times,serif" font-size="14.00">OrdersModule</text>
</g>
<!-- OrdersModule&#45;&gt;AppModule -->
<g id="edge5" class="edge">
<title>OrdersModule&#45;&gt;AppModule</title>
<path fill="none" stroke="black" d="M983,-122.24C983,-137.57 983,-157 983,-157 983,-157 845.95,-157 845.95,-157"/>
<polygon fill="black" stroke="black" points="845.95,-153.5 835.95,-157 845.95,-160.5 845.95,-153.5"/>
</g>
<!-- PaymentsModule -->
<g id="node6" class="node">
<title>PaymentsModule</title>
<polygon fill="#8dd3c7" stroke="black" points="915.99,-122 912.99,-126 891.99,-126 888.99,-122 802.01,-122 802.01,-86 915.99,-86 915.99,-122"/>
<text text-anchor="middle" x="859" y="-99.8" font-family="Times,serif" font-size="14.00">PaymentsModule</text>
</g>
<!-- PaymentsModule&#45;&gt;AppModule -->
<g id="edge6" class="edge">
<title>PaymentsModule&#45;&gt;AppModule</title>
<path fill="none" stroke="black" d="M818.92,-122.11C818.92,-122.11 818.92,-140.99 818.92,-140.99"/>
<polygon fill="black" stroke="black" points="815.42,-140.99 818.92,-150.99 822.42,-140.99 815.42,-140.99"/>
</g>
<!-- ProductsModule -->
<g id="node7" class="node">
<title>ProductsModule</title>
<polygon fill="#8dd3c7" stroke="black" points="784.04,-122 781.04,-126 760.04,-126 757.04,-122 675.96,-122 675.96,-86 784.04,-86 784.04,-122"/>
<text text-anchor="middle" x="730" y="-99.8" font-family="Times,serif" font-size="14.00">ProductsModule</text>
</g>
<!-- ProductsModule&#45;&gt;AppModule -->
<g id="edge7" class="edge">
<title>ProductsModule&#45;&gt;AppModule</title>
<path fill="none" stroke="black" d="M768.22,-122.11C768.22,-122.11 768.22,-140.99 768.22,-140.99"/>
<polygon fill="black" stroke="black" points="764.72,-140.99 768.22,-150.99 771.72,-140.99 764.72,-140.99"/>
</g>
<!-- ReviewsModule -->
<g id="node8" class="node">
<title>ReviewsModule</title>
<polygon fill="#8dd3c7" stroke="black" points="657.76,-122 654.76,-126 633.76,-126 630.76,-122 550.24,-122 550.24,-86 657.76,-86 657.76,-122"/>
<text text-anchor="middle" x="604" y="-99.8" font-family="Times,serif" font-size="14.00">ReviewsModule</text>
</g>
<!-- ReviewsModule&#45;&gt;AppModule -->
<g id="edge8" class="edge">
<title>ReviewsModule&#45;&gt;AppModule</title>
<path fill="none" stroke="black" d="M604,-122.24C604,-137.57 604,-157 604,-157 604,-157 742.3,-157 742.3,-157"/>
<polygon fill="black" stroke="black" points="742.3,-160.5 752.3,-157 742.3,-153.5 742.3,-160.5"/>
</g>
<!-- SellersModule -->
<g id="node9" class="node">
<title>SellersModule</title>
<polygon fill="#8dd3c7" stroke="black" points="531.65,-122 528.65,-126 507.65,-126 504.65,-122 434.35,-122 434.35,-86 531.65,-86 531.65,-122"/>
<text text-anchor="middle" x="483" y="-99.8" font-family="Times,serif" font-size="14.00">SellersModule</text>
</g>
<!-- SellersModule&#45;&gt;AppModule -->
<g id="edge9" class="edge">
<title>SellersModule&#45;&gt;AppModule</title>
<path fill="none" stroke="black" d="M483,-122.02C483,-139.37 483,-163 483,-163 483,-163 742.06,-163 742.06,-163"/>
<polygon fill="black" stroke="black" points="742.06,-166.5 752.06,-163 742.06,-159.5 742.06,-166.5"/>
</g>
<!-- SubscriptionsModule -->
<g id="node10" class="node">
<title>SubscriptionsModule</title>
<polygon fill="#8dd3c7" stroke="black" points="415.77,-122 412.77,-126 391.77,-126 388.77,-122 280.23,-122 280.23,-86 415.77,-86 415.77,-122"/>
<text text-anchor="middle" x="348" y="-99.8" font-family="Times,serif" font-size="14.00">SubscriptionsModule</text>
</g>
<!-- SubscriptionsModule&#45;&gt;AppModule -->
<g id="edge10" class="edge">
<title>SubscriptionsModule&#45;&gt;AppModule</title>
<path fill="none" stroke="black" d="M348,-122.11C348,-141.34 348,-169 348,-169 348,-169 742.04,-169 742.04,-169"/>
<polygon fill="black" stroke="black" points="742.04,-172.5 752.04,-169 742.04,-165.5 742.04,-172.5"/>
</g>
<!-- UsersModule -->
<g id="node11" class="node">
<title>UsersModule</title>
<polygon fill="#8dd3c7" stroke="black" points="261.92,-122 258.92,-126 237.92,-126 234.92,-122 170.08,-122 170.08,-86 261.92,-86 261.92,-122"/>
<text text-anchor="middle" x="216" y="-99.8" font-family="Times,serif" font-size="14.00">UsersModule</text>
</g>
<!-- UsersModule&#45;&gt;AppModule -->
<g id="edge11" class="edge">
<title>UsersModule&#45;&gt;AppModule</title>
<path fill="none" stroke="black" d="M216,-122.28C216,-143.32 216,-175 216,-175 216,-175 741.97,-175 741.97,-175"/>
<polygon fill="black" stroke="black" points="741.97,-178.5 751.97,-175 741.97,-171.5 741.97,-178.5"/>
</g>
<!-- WarehousesModule -->
<g id="node12" class="node">
<title>WarehousesModule</title>
<polygon fill="#8dd3c7" stroke="black" points="151.96,-122 148.96,-126 127.96,-126 124.96,-122 24.04,-122 24.04,-86 151.96,-86 151.96,-122"/>
<text text-anchor="middle" x="88" y="-99.8" font-family="Times,serif" font-size="14.00">WarehousesModule</text>
</g>
<!-- WarehousesModule&#45;&gt;AppModule -->
<g id="edge12" class="edge">
<title>WarehousesModule&#45;&gt;AppModule</title>
<path fill="none" stroke="black" d="M88,-122.09C88,-145.13 88,-182 88,-182 88,-182 742.21,-182 742.21,-182"/>
<polygon fill="black" stroke="black" points="742.21,-185.5 752.21,-182 742.21,-178.5 742.21,-185.5"/>
</g>
</g>
</svg>
