<?xml version="1.0" standalone="no"?>
<!DOCTYPE svg PUBLIC "-//W3C//DTD SVG 20010904//EN"
 "http://www.w3.org/TR/2001/REC-SVG-20010904/DTD/svg10.dtd">
<svg version="1.0" xmlns="http://www.w3.org/2000/svg"
 width="1536.000000pt" height="1024.000000pt" viewBox="0 0 1536.000000 1024.000000"
 preserveAspectRatio="xMidYMid meet">

<g transform="translate(0.000000,1024.000000) scale(0.100000,-0.100000)"
fill="#000000" stroke="none">
<path d="M9673 6583 c-172 -2 -313 -7 -313 -12 0 -11 68 -238 82 -273 13 -34
22 -35 218 -8 187 25 454 50 530 50 87 0 106 -12 129 -84 20 -63 97 -320 171
-576 23 -80 71 -244 107 -365 150 -509 147 -502 208 -573 41 -47 132 -96 209
-112 38 -8 280 -10 813 -7 839 4 820 2 947 70 116 62 196 168 265 353 16 43
85 221 154 394 191 482 407 1039 407 1050 0 15 -205 13 -217 -2 -6 -7 -25 -51
-43 -98 -17 -47 -56 -146 -85 -220 -77 -196 -281 -717 -330 -845 -108 -280
-161 -367 -260 -430 -111 -71 -93 -70 -840 -70 -758 0 -741 -2 -828 75 -55 49
-93 125 -131 260 -51 179 -176 610 -373 1275 -21 74 -43 127 -55 138 -18 15
-43 17 -237 15 -119 -2 -357 -4 -528 -5z"/>
<path d="M10738 6532 c-97 -2 -128 -6 -128 -16 0 -7 15 -62 34 -122 19 -60 60
-192 91 -294 31 -102 65 -207 75 -235 l18 -50 378 -3 c208 -1 381 1 386 6 9 9
40 193 63 377 8 72 22 175 29 230 10 74 11 102 2 108 -10 6 -635 6 -948 -1z
m66 -146 c-1 -9 2 -16 7 -16 5 0 9 -4 9 -10 0 -16 -47 -11 -54 6 -6 17 13 45
29 40 6 -2 9 -11 9 -20z m363 12 c4 -7 9 -21 10 -32 3 -16 1 -17 -12 -6 -12
10 -15 9 -16 -6 0 -14 -2 -15 -6 -4 -3 8 -10 18 -16 21 -6 4 -4 13 4 23 17 19
25 20 36 4z m135 -55 c-9 -14 -10 -14 -16 5 -9 29 3 51 16 28 5 -10 5 -23 0
-33z m191 -12 c-4 -6 -43 31 -43 41 0 5 4 7 9 3 5 -3 13 0 18 7 5 9 10 3 13
-17 4 -16 5 -32 3 -34z m-517 33 c-3 -9 -6 -20 -6 -26 0 -5 -7 -3 -15 6 -21
21 -19 36 6 36 15 0 19 -4 15 -16z m-93 -90 c-6 -17 -43 -5 -43 14 0 8 8 21
18 28 15 11 18 10 23 -9 3 -12 4 -27 2 -33z m215 18 c-7 -9 -13 -19 -15 -21
-1 -2 -9 4 -19 13 -23 23 -1 51 28 35 16 -9 17 -13 6 -27z m178 -22 c22 0 17
-28 -7 -35 -27 -9 -33 -2 -24 32 4 15 10 22 12 16 3 -7 11 -13 19 -13z m134
-1 c0 -9 -9 -19 -19 -22 -23 -6 -31 0 -31 24 0 12 7 16 25 15 16 0 25 -7 25
-17z m190 1 c0 -13 -7 -20 -19 -20 -22 0 -36 26 -18 34 25 10 37 5 37 -14z
m-613 -16 c1 -5 -1 -15 -6 -23 -7 -10 -13 -11 -30 -2 -11 7 -21 16 -21 22 0 6
4 8 9 4 5 -3 13 -1 16 5 8 12 27 9 32 -6z m-112 -42 c17 -12 13 -40 -6 -45
-25 -7 -48 31 -28 44 17 11 21 11 34 1z m215 -2 c0 -5 -4 -10 -10 -10 -5 0
-10 5 -10 10 0 6 5 10 10 10 6 0 10 -4 10 -10z m60 -19 c0 -12 -20 -25 -27
-18 -7 7 6 27 18 27 5 0 9 -4 9 -9z m380 -8 c0 -9 -29 -33 -39 -33 -15 0 -14
37 2 43 13 4 37 -2 37 -10z m-210 -55 c0 -20 -26 -24 -33 -5 -2 6 1 20 7 29
12 19 26 6 26 -24z m-340 -14 c0 -20 -4 -25 -16 -20 -9 3 -18 6 -20 6 -2 0 -4
9 -4 20 0 13 7 20 20 20 15 0 20 -7 20 -26z m578 -45 c-5 -3 -9 -9 -9 -13 3
-22 -1 -26 -14 -12 -18 18 -19 33 -3 50 11 11 15 11 25 -3 7 -10 8 -18 1 -22z
m-462 -6 c-3 -22 -46 -31 -46 -10 0 18 10 27 31 27 11 0 16 -7 15 -17z m147
-23 c-3 -11 -11 -20 -18 -20 -18 0 -27 30 -14 46 16 19 39 0 32 -26z m151 -16
c21 -8 20 -30 0 -38 -22 -9 -60 24 -42 36 16 9 22 10 42 2z m-411 -38 c3 -8 3
-24 0 -35 -5 -21 -7 -21 -24 -5 -22 20 -25 40 -6 47 20 9 25 8 30 -7z m511
-22 c4 -9 4 -19 1 -22 -3 -3 -5 -1 -5 5 0 7 -10 9 -22 5 -21 -5 -22 -4 -9 11
17 21 27 21 35 1z m-317 -36 c-1 -10 -7 -18 -15 -18 -7 0 -10 5 -7 10 3 6 1
10 -4 10 -6 0 -11 4 -11 9 0 6 9 9 19 8 12 -1 19 -8 18 -19z m142 -5 c13 -25
-12 -48 -29 -28 -13 16 -7 45 9 45 6 0 14 -8 20 -17z"/>
<path d="M11742 6498 c-6 -8 -15 -47 -18 -86 l-7 -72 99 0 c848 -4 1231 5
1329 31 73 20 97 64 52 94 -46 30 -173 37 -807 42 -547 5 -637 3 -648 -9z"/>
<path d="M12375 6162 c-407 -1 -673 -6 -679 -12 -5 -5 -12 -43 -15 -84 -5 -59
-3 -77 7 -81 23 -9 806 -5 1041 5 323 14 389 29 417 96 20 47 5 74 -41 74 -18
0 -39 1 -47 3 -7 1 -314 1 -683 -1z"/>
<path d="M3862 6050 c-208 -55 -350 -201 -413 -425 -31 -108 -33 -334 -5 -440
55 -210 187 -348 382 -400 121 -33 346 -15 442 34 l36 19 62 -54 c34 -30 70
-54 81 -54 24 0 176 74 192 94 9 11 0 22 -46 56 -32 24 -70 54 -85 67 l-26 25
39 62 c79 123 116 307 97 485 -28 280 -184 473 -433 536 -82 21 -232 19 -323
-5z m307 -263 c82 -41 140 -109 172 -203 45 -129 30 -318 -33 -422 l-20 -32
-50 65 c-29 37 -55 62 -62 58 -41 -22 -146 -98 -146 -105 0 -10 68 -88 93
-106 9 -7 17 -17 17 -22 0 -14 -69 -30 -132 -30 -192 0 -318 160 -318 405 0
144 36 249 113 332 97 106 231 128 366 60z"/>
<path d="M7584 6051 c-87 -53 -80 -198 11 -237 104 -43 205 15 205 118 0 60
-21 103 -60 123 -41 21 -118 19 -156 -4z"/>
<path d="M8504 6061 c-2 -2 -4 -100 -4 -218 l0 -213 -37 24 c-87 58 -217 73
-320 38 -193 -67 -304 -303 -264 -562 35 -222 175 -350 383 -350 90 0 156 21
218 70 l40 32 0 -41 0 -41 111 0 112 0 -7 61 c-3 34 -6 320 -6 636 l0 575
-111 -4 c-61 -1 -113 -5 -115 -7z m-107 -570 c81 -37 117 -125 111 -270 -3
-79 -8 -104 -28 -141 -34 -61 -87 -90 -165 -90 -135 0 -196 81 -196 258 0 124
40 209 115 243 52 24 110 24 163 0z"/>
<path d="M1700 5425 l0 -635 365 0 365 0 0 115 0 115 -235 0 -235 0 0 520 0
520 -130 0 -130 0 0 -635z"/>
<path d="M6600 5431 l0 -631 125 0 125 0 0 220 0 220 110 0 c171 0 264 28 350
106 87 79 125 190 118 346 -3 82 -8 104 -36 161 -40 80 -111 147 -190 179 -53
21 -75 22 -329 26 l-273 4 0 -631z m490 363 c50 -29 72 -73 73 -147 0 -67 -15
-108 -55 -143 -35 -32 -82 -44 -174 -44 l-84 0 0 181 0 181 103 -4 c80 -2 110
-8 137 -24z"/>
<path d="M12108 5813 l-456 -3 -11 -30 c-6 -18 -21 -34 -36 -40 -16 -6 -161
-10 -355 -10 -181 0 -335 -3 -344 -6 -40 -15 2 -76 65 -94 44 -13 1617 -13
1758 0 121 11 184 36 218 89 13 19 23 49 23 67 l0 34 -202 -2 c-112 -2 -408
-4 -660 -5z"/>
<path d="M2733 5695 c-94 -29 -197 -115 -241 -201 -54 -107 -71 -285 -37 -408
67 -248 296 -365 565 -290 116 33 222 136 271 262 27 71 37 231 20 314 -36
169 -153 294 -309 327 -70 15 -217 13 -269 -4z m227 -207 c60 -31 96 -80 116
-158 19 -76 14 -160 -14 -223 -42 -95 -147 -142 -248 -112 -96 28 -136 105
-136 260 1 191 140 305 282 233z"/>
<path d="M5933 5695 c-189 -59 -292 -237 -280 -485 7 -126 24 -189 76 -266 75
-112 192 -166 356 -165 101 0 168 13 228 43 47 23 147 118 147 139 0 8 -33 38
-74 66 l-75 51 -20 -22 c-65 -69 -212 -97 -296 -56 -56 27 -95 83 -102 145
l-6 45 289 2 289 3 -2 97 c-1 53 -9 122 -18 155 -34 120 -124 214 -238 248
-62 18 -216 19 -274 0z m223 -191 c38 -18 68 -66 79 -127 l7 -37 -177 0 -177
0 7 28 c12 48 49 106 84 129 42 28 126 31 177 7z"/>
<path d="M9074 5691 c-65 -19 -145 -64 -183 -105 l-23 -24 40 -59 c22 -32 48
-66 59 -75 19 -17 21 -17 54 8 91 68 186 89 263 60 36 -14 49 -26 66 -61 12
-25 20 -55 18 -67 -3 -22 -8 -23 -120 -29 -202 -11 -315 -61 -367 -164 -22
-42 -26 -63 -26 -141 0 -84 2 -94 30 -140 24 -38 45 -56 94 -81 56 -30 71 -33
146 -33 100 0 176 24 220 70 16 17 32 30 36 30 4 0 9 -17 11 -37 l3 -38 113
-3 113 -3 -6 33 c-3 18 -10 166 -14 328 -5 163 -14 311 -20 330 -30 98 -110
174 -215 205 -68 20 -215 18 -292 -4z m298 -538 c4 -58 -8 -112 -30 -137 -53
-59 -168 -75 -221 -30 -51 43 -51 123 0 170 27 24 103 43 181 43 l67 1 3 -47z"/>
<path d="M4762 5337 l3 -352 32 -66 c54 -108 131 -145 291 -137 94 4 162 29
208 75 l24 24 0 -25 c0 -55 3 -56 128 -56 l115 0 -6 68 c-4 37 -7 237 -7 445
l0 377 -114 0 -115 0 -3 -297 c-3 -290 -4 -299 -25 -329 -47 -66 -171 -92
-230 -48 -56 41 -58 54 -61 377 l-3 297 -120 0 -120 0 3 -353z"/>
<path d="M7530 5245 l0 -445 120 0 120 0 0 445 0 445 -120 0 -120 0 0 -445z"/>
<path d="M10902 5434 c-39 -27 -21 -117 31 -146 17 -10 190 -14 797 -16 812
-3 1004 3 1069 36 45 22 72 60 74 103 l2 34 -975 3 c-871 2 -978 0 -998 -14z"/>
<path d="M10967 5114 c-10 -10 12 -57 41 -88 15 -16 47 -38 72 -50 44 -21 58
-21 645 -24 615 -3 791 4 878 34 62 21 109 67 105 103 l-3 26 -866 3 c-476 1
-868 -1 -872 -4z"/>
<path d="M11244 4476 c-103 -26 -195 -102 -237 -195 -32 -71 -35 -190 -7 -265
30 -79 93 -146 172 -181 178 -80 387 -11 476 158 24 47 27 62 27 152 0 119
-19 168 -96 245 -80 80 -219 116 -335 86z m163 -172 c19 -9 46 -33 61 -52 23
-30 27 -45 27 -102 0 -57 -4 -72 -27 -102 -38 -50 -88 -71 -155 -66 -95 8
-153 72 -153 168 0 66 24 110 79 147 41 28 117 31 168 7z"/>
<path d="M12353 4479 c-179 -35 -294 -187 -281 -370 12 -166 139 -289 314
-305 222 -21 401 153 381 370 -15 156 -113 269 -262 301 -77 16 -91 17 -152 4z
m147 -174 c16 -8 37 -27 48 -42 63 -92 44 -199 -48 -261 -30 -20 -44 -23 -97
-20 -52 3 -68 9 -93 33 -89 86 -73 237 32 288 41 21 120 22 158 2z"/>
<path d="M3590 4398 c-62 -32 -102 -86 -108 -146 -7 -73 14 -104 98 -148 112
-58 135 -92 110 -158 -23 -63 -132 -85 -219 -46 -24 11 -45 19 -46 18 -8 -11
-26 -50 -23 -53 42 -36 165 -55 238 -35 57 15 124 80 139 135 22 83 -14 137
-130 195 -85 44 -105 80 -74 139 28 54 139 80 204 47 26 -14 28 -13 39 15 10
29 9 31 -23 45 -54 22 -153 18 -205 -8z"/>
<path d="M9305 4408 c-16 -51 -66 -418 -62 -455 10 -91 62 -128 177 -128 93 1
146 25 195 93 39 54 53 108 84 317 12 77 23 150 26 163 5 20 2 22 -34 22 -37
0 -40 -2 -46 -32 -3 -18 -19 -113 -35 -210 -32 -194 -52 -247 -103 -278 -45
-28 -118 -27 -152 3 -40 34 -41 79 -6 290 39 238 40 227 -4 227 -20 0 -37 -6
-40 -12z"/>
<path d="M9945 4401 c-61 -27 -102 -67 -120 -116 -33 -84 1 -142 115 -200 27
-14 58 -35 70 -47 29 -32 26 -81 -8 -119 -39 -43 -116 -52 -187 -20 -26 12
-49 20 -50 19 -8 -11 -26 -50 -23 -53 20 -18 83 -38 128 -42 135 -13 250 73
250 186 0 52 -32 89 -118 136 -37 20 -75 44 -84 53 -21 18 -23 60 -6 97 26 57
144 84 223 51 19 -8 35 -12 35 -8 0 4 3 17 6 29 5 17 -1 25 -25 37 -42 22
-155 21 -206 -3z"/>
<path d="M10371 4278 c-38 -79 -101 -209 -139 -290 l-71 -148 39 0 c38 0 39 1
75 75 l36 76 107 -3 107 -3 14 -77 13 -78 40 0 c38 0 39 1 34 28 -8 39 -96
546 -96 555 0 4 -20 7 -45 7 l-45 0 -69 -142z m138 -220 c1 -16 -9 -18 -84
-18 -47 0 -85 3 -85 6 0 3 24 60 53 127 30 67 58 131 62 142 6 14 15 -18 31
-110 12 -71 23 -138 23 -147z"/>
<path d="M7745 4245 c-5 -2 -27 -6 -47 -10 -73 -12 -127 -100 -93 -152 8 -12
39 -35 68 -49 107 -54 127 -82 92 -128 -20 -27 -108 -33 -159 -12 -22 9 -40
15 -41 14 -2 -2 -6 -13 -9 -25 -6 -18 -1 -25 25 -39 18 -9 57 -18 88 -21 69
-5 134 24 168 76 47 71 22 119 -92 179 -80 42 -94 69 -51 97 26 17 82 17 133
0 16 -5 24 -2 32 14 10 17 8 22 -16 34 -30 15 -82 26 -98 22z"/>
<path d="M3915 4230 c-10 -17 -46 -298 -41 -325 7 -35 38 -69 74 -80 43 -13
111 4 147 37 l35 30 0 -31 c0 -28 3 -31 29 -31 24 0 30 5 35 28 6 28 39 241
50 323 l7 47 -37 4 c-20 2 -38 0 -40 -6 -2 -6 -10 -63 -19 -126 -20 -139 -34
-173 -77 -200 -42 -25 -82 -26 -108 0 -25 25 -25 36 0 196 11 71 20 131 20
134 0 3 -16 5 -36 5 -20 0 -37 -2 -39 -5z"/>
<path d="M4404 4226 c-59 -26 -90 -97 -64 -147 6 -10 39 -33 73 -50 77 -39 97
-56 97 -85 0 -55 -90 -81 -167 -49 -41 17 -39 18 -48 -15 -6 -23 -2 -27 42
-43 66 -24 110 -21 170 8 35 18 56 36 67 59 36 75 16 113 -86 166 -44 23 -82
49 -85 57 -4 10 4 25 21 40 30 26 79 30 122 11 23 -11 28 -10 40 7 20 27 18
32 -17 44 -43 15 -127 13 -165 -3z"/>
<path d="M5005 4221 c-47 -21 -99 -76 -120 -128 -19 -45 -19 -146 0 -182 21
-41 70 -79 111 -87 46 -9 135 11 168 37 15 12 26 31 26 44 l0 24 -46 -24 c-60
-32 -131 -34 -162 -5 -28 27 -35 57 -30 129 9 119 111 193 202 146 31 -17 40
-13 50 21 5 18 1 24 -25 33 -48 16 -129 13 -174 -8z"/>
<path d="M5345 4223 c-79 -41 -125 -114 -133 -209 -9 -123 51 -189 173 -189
47 0 70 6 106 27 138 81 162 304 39 369 -44 24 -142 25 -185 2z m147 -62 c31
-28 33 -33 33 -98 -1 -117 -53 -183 -142 -183 -21 0 -43 4 -49 8 -63 43 -58
188 9 260 46 50 102 55 149 13z"/>
<path d="M5696 4058 c-15 -101 -30 -194 -33 -207 -6 -23 -4 -24 32 -18 21 3
39 8 41 9 2 2 12 62 23 132 21 142 34 170 93 199 44 21 84 10 93 -26 4 -14 -3
-79 -14 -145 -26 -148 -27 -176 -5 -168 9 3 26 6 38 6 20 0 23 8 40 127 22
151 26 164 63 191 47 33 78 37 102 13 25 -25 27 -69 6 -196 -22 -133 -22 -135
20 -135 40 0 38 -6 60 147 22 150 20 185 -11 222 -23 28 -32 31 -79 31 -46 0
-60 -5 -99 -35 l-46 -35 -10 25 c-11 29 -45 45 -96 45 -39 0 -68 -12 -101 -43
l-23 -20 0 31 c0 30 -3 32 -33 32 l-33 0 -28 -182z"/>
<path d="M6415 4218 c-2 -13 -18 -117 -35 -233 -16 -115 -32 -220 -35 -232 -5
-21 -2 -23 35 -23 28 0 40 4 40 15 0 7 5 36 11 64 l10 50 35 -21 c47 -28 123
-20 179 20 52 37 95 120 102 199 11 116 -37 183 -128 183 -58 0 -98 -18 -129
-57 l-22 -28 3 40 c4 39 3 40 -28 43 -27 3 -33 -1 -38 -20z m232 -52 c26 -23
28 -30 28 -98 0 -118 -52 -188 -140 -188 -25 0 -44 8 -61 25 -22 22 -25 32
-20 65 3 22 9 57 12 78 7 54 37 98 81 121 50 26 66 26 100 -3z"/>
<path d="M6885 4228 c-5 -14 -55 -361 -55 -379 0 -6 16 -9 37 -7 l37 3 18 123
c9 67 24 135 33 152 21 40 58 63 94 58 24 -3 31 0 35 16 11 39 7 46 -27 46
-33 0 -71 -20 -94 -48 -11 -13 -13 -11 -13 16 0 29 -3 32 -30 32 -17 0 -33 -6
-35 -12z"/>
<path d="M7250 4221 c-75 -39 -123 -133 -123 -241 -1 -148 131 -210 237 -112
l29 27 -7 -27 c-5 -23 -3 -27 25 -33 17 -4 32 -5 34 -3 2 2 15 84 30 183 14
99 28 190 31 203 4 19 0 22 -31 22 -29 0 -35 -4 -35 -21 l0 -20 -26 20 c-35
27 -115 28 -164 2z m138 -47 c26 -18 30 -77 11 -166 -23 -107 -132 -169 -176
-101 -25 39 -23 134 4 195 34 75 109 109 161 72z"/>
<path d="M8255 4224 c-83 -46 -125 -122 -125 -230 0 -58 4 -77 23 -105 43 -64
134 -85 222 -52 50 18 63 36 46 61 -7 12 -14 11 -39 -2 -35 -18 -104 -21 -133
-6 -25 14 -49 62 -49 100 l0 30 140 0 140 0 0 55 c0 63 -17 111 -49 140 -30
26 -134 32 -176 9z m124 -58 c12 -13 24 -40 28 -60 l6 -36 -102 0 c-55 0 -101
3 -101 8 2 21 40 75 66 92 39 26 76 25 103 -4z"/>
<path d="M8585 4228 c-2 -7 -11 -62 -20 -123 -9 -60 -22 -146 -30 -190 -7 -44
-12 -82 -10 -84 2 -2 20 0 39 3 38 7 33 -7 67 204 14 82 35 117 85 138 45 19
60 18 84 -6 26 -26 26 -79 1 -222 -10 -59 -16 -110 -13 -113 5 -5 72 -7 72 -2
0 1 9 56 20 122 29 174 27 219 -9 256 -25 24 -37 29 -81 29 -54 0 -81 -10
-117 -43 l-23 -20 0 31 c0 29 -3 32 -30 32 -17 0 -33 -6 -35 -12z"/>
</g>
</svg>
