<svg width="24" height="24" viewBox="0 0 24 24" fill="none" xmlns="http://www.w3.org/2000/svg">
  <path d="M20 12V22H4V12M2 7H22V12H2V7ZM12 22V7M12 7H7.5C6.1 7 5 5.9 5 4.5C5 3.1 6.1 2 7.5 2C9.9 2 12 4.5 12 7ZM12 7H16.5C17.9 7 19 5.9 19 4.5C19 3.1 17.9 2 16.5 2C14.1 2 12 4.5 12 7Z" stroke="url(#gradient4)" stroke-width="2" stroke-linecap="round" stroke-linejoin="round" fill="url(#gradient4)" fill-opacity="0.1"/>
  <defs>
    <linearGradient id="gradient4" x1="0%" y1="0%" x2="100%" y2="100%">
      <stop offset="0%" style="stop-color:#7209b7;stop-opacity:1" />
      <stop offset="100%" style="stop-color:#560bad;stop-opacity:1" />
    </linearGradient>
  </defs>
</svg>
