<svg width="24" height="24" viewBox="0 0 24 24" fill="none" xmlns="http://www.w3.org/2000/svg">
  <path d="M20.8 4.6C20.3 4.1 19.7 3.7 19 3.5C18.3 3.2 17.6 3.1 16.8 3.1C16.1 3.1 15.4 3.2 14.8 3.5C14.1 3.7 13.5 4.1 13 4.6L12 5.6L11 4.6C10.5 4.1 9.9 3.7 9.2 3.5C8.6 3.2 7.9 3.1 7.2 3.1C6.4 3.1 5.7 3.2 5 3.5C4.3 3.7 3.7 4.1 3.2 4.6C1.1 6.7 1.1 10.1 3.2 12.2L12 21L20.8 12.2C22.9 10.1 22.9 6.7 20.8 4.6Z" stroke="url(#gradient2)" stroke-width="2" stroke-linecap="round" stroke-linejoin="round" fill="url(#gradient2)" fill-opacity="0.2"/>
  <defs>
    <linearGradient id="gradient2" x1="0%" y1="0%" x2="100%" y2="100%">
      <stop offset="0%" style="stop-color:#ff006e;stop-opacity:1" />
      <stop offset="100%" style="stop-color:#c77dff;stop-opacity:1" />
    </linearGradient>
  </defs>
</svg>
