<svg width="24" height="24" viewBox="0 0 24 24" fill="none" xmlns="http://www.w3.org/2000/svg">
  <path d="M3 3H5L5.4 5M7 13H17L21 5H5.4M7 13L5.4 5M7 13L4.7 15.3C4.3 15.7 4.6 16.5 5.1 16.5H17M17 13V17C17 18.1 16.1 19 15 19H9C7.9 19 7 18.1 7 17V13H17ZM9 21C9.6 21 10 21.4 10 22C10 22.6 9.6 23 9 23C8.4 23 8 22.6 8 22C8 21.4 8.4 21 9 21ZM20 21C20.6 21 21 21.4 21 22C21 22.6 20.6 23 20 23C19.4 23 19 22.6 19 22C19 21.4 19.4 21 20 21Z" stroke="url(#gradient1)" stroke-width="2" stroke-linecap="round" stroke-linejoin="round" fill="url(#gradient1)" fill-opacity="0.1"/>
  <defs>
    <linearGradient id="gradient1" x1="0%" y1="0%" x2="100%" y2="100%">
      <stop offset="0%" style="stop-color:#00b4d8;stop-opacity:1" />
      <stop offset="100%" style="stop-color:#0077b6;stop-opacity:1" />
    </linearGradient>
  </defs>
</svg>
