<svg width="24" height="24" viewBox="0 0 24 24" fill="none" xmlns="http://www.w3.org/2000/svg">
<path d="M21.41 11.58L12.41 2.58C12.05 2.22 11.55 2 11.02 2H4C2.9 2 2 2.9 2 4V11.02C2 11.55 2.22 12.05 2.59 12.42L11.59 21.42C11.95 21.78 12.45 22 12.98 22C13.51 22 14.01 21.78 14.37 21.42L21.37 14.42C21.73 14.06 21.95 13.56 21.95 13.03C21.95 12.5 21.73 12 21.37 11.64L21.41 11.58ZM12.98 20L4 11.02V4H11.02L20 12.98L12.98 20Z" fill="currentColor"/>
<circle cx="6.5" cy="6.5" r="1.5" fill="currentColor"/>
</svg>
